<svg width="96" height="96" xmlns="http://www.w3.org/2000/svg" xmlns:xlink="http://www.w3.org/1999/xlink" overflow="hidden"><defs><clipPath id="clip0"><rect x="90" y="100" width="96" height="96"/></clipPath></defs><g clip-path="url(#clip0)" transform="translate(-90 -100)"><path d="M168.5 117.5 167.5 108.5 156.5 119.5 157.1 124.7 141.1 140.7C139.7 140 138.1 139.5 136.4 139.5 130.9 139.5 126.4 144 126.4 149.5 126.4 155 130.9 159.5 136.4 159.5 141.9 159.5 146.4 155 146.4 149.5 146.4 147.8 146 146.3 145.3 144.9L161.3 128.9 166.5 129.5 177.5 118.5 168.5 117.5Z" fill="#EE8C1D"/><path d="M169.3 132.3 168 133.7 166.1 133.5 164 133.2C166.8 138 168.5 143.5 168.5 149.5 168.5 167.1 154.1 181.5 136.5 181.5 118.9 181.5 104.5 167.1 104.5 149.5 104.5 131.9 118.9 117.5 136.5 117.5 142.4 117.5 148 119.1 152.8 122L152.6 120 152.3 118 153.7 116.6 154.4 115.9C149 113.1 143 111.5 136.5 111.5 115.5 111.5 98.5 128.5 98.5 149.5 98.5 170.5 115.5 187.5 136.5 187.5 157.5 187.5 174.5 170.5 174.5 149.5 174.5 143 172.9 137 170 131.7L169.3 132.3Z" fill="#EE8C1D"/><path d="M153.2 142.7C154.1 144.8 154.5 147.1 154.5 149.5 154.5 159.4 146.4 167.5 136.5 167.5 126.6 167.5 118.5 159.4 118.5 149.5 118.5 139.6 126.6 131.5 136.5 131.5 138.9 131.5 141.2 132 143.3 132.8L147.8 128.3C144.4 126.5 140.6 125.5 136.5 125.5 123.3 125.5 112.5 136.3 112.5 149.5 112.5 162.7 123.3 173.5 136.5 173.5 149.7 173.5 160.5 162.7 160.5 149.5 160.5 145.4 159.5 141.6 157.7 138.2L153.2 142.7Z" fill="#EE8C1D"/></g></svg>