<svg width="96" height="96" xmlns="http://www.w3.org/2000/svg" xmlns:xlink="http://www.w3.org/1999/xlink" overflow="hidden"><defs><clipPath id="clip0"><rect x="220" y="175" width="96" height="96"/></clipPath></defs><g clip-path="url(#clip0)" transform="translate(-220 -175)"><path d="M268 235C261.4 235 256 229.6 256 223 256 216.4 261.4 211 268 211 274.6 211 280 216.4 280 223 280 229.6 274.6 235 268 235ZM295 215.5C294.4 213.3 293.5 211.2 292.4 209.3L294.9 201.8 289.2 196.1 281.7 198.6C279.7 197.5 277.6 196.6 275.4 196L272 189 264 189 260.5 196C258.3 196.6 256.2 197.5 254.3 198.6L246.8 196.1 241.1 201.8 243.6 209.3C242.5 211.3 241.6 213.4 241 215.6L234 219 234 227 241 230.5C241.6 232.7 242.5 234.8 243.6 236.7L241.1 244.2 246.8 249.9 254.3 247.4C256.3 248.5 258.4 249.4 260.6 250L264.1 257 272.1 257 275.6 250C277.8 249.4 279.9 248.5 281.8 247.4L289.3 249.9 295 244.2 292.5 236.7C293.6 234.7 294.5 232.6 295.1 230.4L302.1 226.9 302.1 218.9 295 215.5Z" fill="#FFFFFF"/></g></svg>