<svg width="96" height="96" xmlns="http://www.w3.org/2000/svg" xmlns:xlink="http://www.w3.org/1999/xlink" overflow="hidden"><defs><clipPath id="clip0"><rect x="472" y="312" width="96" height="96"/></clipPath></defs><g clip-path="url(#clip0)" transform="translate(-472 -312)"><path d="M552 376.96C551.944 374.026 550.573 371.273 548.266 369.46 545.387 367.196 542.179 365.384 538.754 364.087L538.741 364.081 538.741 364.081 538.715 364.071 537.208 363.471 530.624 360.852C530.25 360.698 530.005 360.333 530.005 359.928L530.005 357.474C533.798 354.445 536.008 349.854 536.01 345L536.01 343.5C536.882 341.727 537.436 339.814 537.645 337.849 537.634 331.129 533.372 325.7 527.6 322.887 527.123 322.663 526.562 322.713 526.133 323.018L525.123 323.718 524.006 322.191C523.662 321.709 523.145 321.38 522.563 321.272 521.522 321.091 520.468 321 519.412 321 512.383 321 506.575 324.81 504.168 330.6 502.586 334.929 502.52 339.667 503.982 344.038L504.01 344.248 504.01 345C504.01 349.85 506.214 354.436 510 357.467L510 359.923C510.003 360.322 509.767 360.683 509.4 360.84L502.633 363.534 501.09 364.148C498.123 365.301 495.314 366.825 492.73 368.684L495.63 371.584 497.018 372.974 495.652 374.39 494.222 375.87 494.203 375.889 494.184 375.908C493.606 376.478 492.826 376.796 492.014 376.794 491.931 376.794 491.849 376.794 491.767 376.785L491.067 377.485 500.657 387.127C502.06 388.529 502.061 390.802 500.659 392.206 499.258 393.609 496.984 393.61 495.581 392.208L488.01 384.664 488.01 394.574 488.9 395.168C493.806 398.438 507.094 400.068 520.287 400.068 533.587 400.068 546.794 398.41 551.202 395.104L552.002 394.504ZM508.01 345 508.01 341.6C513.067 335.5 518.484 339.623 527.442 333.375 528.66 332.525 529.901 338.165 532.01 340.134L532.01 345C532.01 351.627 526.637 357 520.01 357 513.383 357 508.01 351.627 508.01 345ZM516 384.151 504.853 366.956 508.94 365.329 516 368.154ZM520 365.451 513.155 362.713C513.708 361.888 514.002 360.916 514 359.923L514 359.823C517.848 361.394 522.158 361.394 526.006 359.823L526.006 359.923C526.004 360.914 526.298 361.884 526.85 362.707ZM524 384.071 524 368.154 531.065 365.328 535.012 366.9Z" fill="#8C0091"/><path d="M496.994 390.79C497.617 391.409 498.625 391.406 499.244 390.782 499.86 390.162 499.86 389.16 499.244 388.54L488.244 377.48 491.244 374.48C491.672 374.899 492.356 374.899 492.784 374.48L494.214 373 486.694 365.47 485.224 366.94C484.799 367.365 484.799 368.055 485.224 368.48L477.014 376.63C476.589 376.205 475.899 376.205 475.474 376.63L474 378.13 481.53 385.65 483 384.19C483.419 383.762 483.419 383.078 483 382.65L485.9 379.74Z" fill="#8C0091"/></g></svg>