<svg width="96" height="96" xmlns="http://www.w3.org/2000/svg" xmlns:xlink="http://www.w3.org/1999/xlink" overflow="hidden"><defs><clipPath id="clip0"><rect x="101" y="169" width="96" height="96"/></clipPath></defs><g clip-path="url(#clip0)" transform="translate(-101 -169)"><path d="M157 219.5C157 221.7 155.2 223.5 153 223.5L149 223.5C146.8 223.5 145 221.7 145 219.5L145 217.5 111 217.5 111 245.5C111 247.7 112.8 249.5 115 249.5L187 249.5C189.2 249.5 191 247.7 191 245.5L191 217.5 157 217.5 157 219.5Z" fill="#FFFFFF"/><path d="M187 193.5 167 193.5 167 187C167 183.1 163.9 180 160 180L142 180C138.1 180 135 183.1 135 187L135 193.5 115 193.5C112.8 193.5 111 195.3 111 197.5L111 213.5 145 213.5 145 211.5 157 211.5 157 213.5 191 213.5 191 197.5C191 195.3 189.2 193.5 187 193.5M141 193.5 141 187C141 186.4 141.4 186 142 186L160 186C160.6 186 161 186.4 161 187L161 193.5 141 193.5Z" fill="#FFFFFF"/></g></svg>