<svg width="96" height="96" xmlns="http://www.w3.org/2000/svg" xmlns:xlink="http://www.w3.org/1999/xlink" overflow="hidden"><defs><clipPath id="clip0"><rect x="150" y="403" width="96" height="96"/></clipPath></defs><g clip-path="url(#clip0)" transform="translate(-150 -403)"><path d="M192 430 208 430 208 427C208 424.8 206.2 423 204 423L162 423C159.8 423 158 424.8 158 427L158 454C158 456.2 159.8 458 162 458L168 458 168 468 178 458 184 458 184 438C184 433.6 187.6 430 192 430Z" fill="#EE8C1D"/><path d="M234 434 192 434C189.8 434 188 435.8 188 438L188 465C188 467.2 189.8 469 192 469L218 469 228 479 228 469 234 469C236.2 469 238 467.2 238 465L238 438C238 435.8 236.2 434 234 434Z" fill="#EE8C1D"/></g></svg>