<svg width="96" height="96" xmlns="http://www.w3.org/2000/svg" xmlns:xlink="http://www.w3.org/1999/xlink" overflow="hidden"><defs><clipPath id="clip0"><rect x="801" y="312" width="96" height="96"/></clipPath></defs><g clip-path="url(#clip0)" transform="translate(-801 -312)"><path d="M879.565 328.991 818.4 328.991C816.53 329.009 815.018 330.521 815 332.391L815 373.666C814.983 375.527 816.479 377.049 818.34 377.066 818.36 377.066 818.38 377.066 818.4 377.066L855.78 377.066 869.37 390.957 869.37 377.164 879.565 377.164C881.435 377.146 882.947 375.634 882.965 373.764L882.965 332.489C882.988 330.586 881.468 329.022 879.565 328.991ZM846.8 337 851.208 337 851.208 357.712 846.8 357.712ZM849 368C846.971 368.001 845.326 366.356 845.325 364.327 845.324 362.298 846.969 360.653 848.998 360.652 851.027 360.651 852.672 362.296 852.673 364.325 852.673 364.325 852.673 364.326 852.673 364.326 852.692 366.336 851.079 367.98 849.069 368 849.049 368 849.028 368 849.008 368Z" fill="#184912"/></g></svg>