<svg width="96" height="96" xmlns="http://www.w3.org/2000/svg" xmlns:xlink="http://www.w3.org/1999/xlink" overflow="hidden"><defs><clipPath id="clip0"><rect x="362" y="312" width="96" height="96"/></clipPath></defs><g clip-path="url(#clip0)" transform="translate(-362 -312)"><path d="M435 394 385 394 385 332 396 332 396 338 424 338 424 332 435 332ZM410 324C411.657 324 413 325.343 413 327 413 328.657 411.657 330 410 330 408.343 330 407 328.657 407 327 406.973 325.37 408.272 324.027 409.901 324 409.934 323.999 409.967 323.999 410 324ZM437 326 420 326 420 324C420 321.791 418.209 320 416 320L404 320C401.791 320 400 321.791 400 324L400 326 383 326C380.791 326 379 327.791 379 330L379 396C379 398.209 380.791 400 383 400L437 400C439.209 400 441 398.209 441 396L441 330C441 327.791 439.209 326 437 326Z" fill="#0843AB"/><path d="M412 346 429 346 429 350 412 350Z" fill="#0843AB"/><path d="M412 358 429 358 429 362 412 362Z" fill="#0843AB"/><path d="M412 370 429 370 429 374 412 374Z" fill="#0843AB"/><path d="M412 382 429 382 429 386 412 386Z" fill="#0843AB"/><path d="M391.707 347.8 393.8 345.707 396.4 348.307 403 341.707 405.093 343.8 396.4 352.493 391.707 347.8Z" fill="#0843AB"/><path d="M391.707 359.8 393.8 357.707 396.4 360.307 403 353.707 405.093 355.8 396.4 364.493 391.707 359.8Z" fill="#0843AB"/><path d="M391.707 371.8 393.8 369.707 396.4 372.307 403 365.707 405.093 367.8 396.4 376.493 391.707 371.8Z" fill="#0843AB"/><path d="M391.707 383.8 393.8 381.707 396.4 384.307 403 377.707 405.093 379.8 396.4 388.493 391.707 383.8Z" fill="#0843AB"/></g></svg>