<svg width="96" height="96" xmlns="http://www.w3.org/2000/svg" xmlns:xlink="http://www.w3.org/1999/xlink" overflow="hidden"><defs><clipPath id="clip0"><rect x="599" y="161" width="96" height="96"/></clipPath></defs><g clip-path="url(#clip0)" transform="translate(-599 -161)"><path d="M646.986 171C626.011 171 609.007 188.004 609.007 208.979 609.007 229.954 626.011 246.958 646.986 246.958 667.961 246.958 684.965 229.954 684.965 208.979 684.965 208.978 684.965 208.976 684.965 208.975 684.972 188.009 667.982 171.007 647.016 171 647.006 171 646.996 171 646.986 171ZM665.605 212.36 650.367 212.36 650.367 227.594 643.605 227.594 643.605 212.356 628.367 212.356 628.367 205.594 643.605 205.594 643.605 190.356 650.367 190.356 650.367 205.594 665.605 205.594Z" fill="#EE8C1D"/></g></svg>