<svg width="96" height="96" xmlns="http://www.w3.org/2000/svg" xmlns:xlink="http://www.w3.org/1999/xlink" overflow="hidden"><defs><clipPath id="clip0"><rect x="52" y="315" width="96" height="96"/></clipPath></defs><g clip-path="url(#clip0)" transform="translate(-52 -315)"><path d="M100 375C93.4 375 88 369.6 88 363 88 356.4 93.4 351 100 351 106.6 351 112 356.4 112 363 112 369.6 106.6 375 100 375ZM127 355.5C126.4 353.3 125.5 351.2 124.4 349.3L126.9 341.8 121.2 336.1 113.7 338.6C111.7 337.5 109.6 336.6 107.4 336L104 329 96 329 92.5 336C90.3 336.6 88.2 337.5 86.3 338.6L78.8 336.1 73.1 341.8 75.6 349.3C74.5 351.3 73.6 353.4 73 355.6L66 359 66 367 73 370.5C73.6 372.7 74.5 374.8 75.6 376.7L73.1 384.2 78.8 389.9 86.3 387.4C88.3 388.5 90.4 389.4 92.6 390L96.1 397 104.1 397 107.6 390C109.8 389.4 111.9 388.5 113.8 387.4L121.3 389.9 127 384.2 124.5 376.7C125.6 374.7 126.5 372.6 127.1 370.4L134.1 366.9 134.1 358.9 127 355.5Z" fill="#EE8C1D"/></g></svg>