<svg width="96" height="96" xmlns="http://www.w3.org/2000/svg" xmlns:xlink="http://www.w3.org/1999/xlink" overflow="hidden"><defs><clipPath id="clip0"><rect x="582" y="312" width="96" height="96"/></clipPath></defs><g clip-path="url(#clip0)" transform="translate(-582 -312)"><path d="M605 366 628 366 628 373 632 373 632 366 655 366 655 373 659 373 659 362 632 362 632 355 628 355 628 362 601 362 601 373 605 373 605 366Z" fill="#5D5401"/><path d="M657 377C651.477 377 647 381.477 647 387 647 392.523 651.477 397 657 397 662.523 397 667 392.523 667 387 667 381.477 662.523 377 657 377ZM657 380.319C658.581 380.318 659.862 381.599 659.863 383.18 659.864 384.761 658.583 386.042 657.002 386.043 655.421 386.044 654.14 384.763 654.139 383.182 654.139 383.181 654.139 383.181 654.139 383.18 654.139 381.6 655.42 380.319 657 380.319ZM662.723 392.059 651.277 392.059 651.277 389.666C651.279 389.216 651.491 388.793 651.85 388.521 652.696 387.913 653.645 387.461 654.65 387.186 655.409 386.936 656.201 386.808 657 386.805 657.798 386.828 658.589 386.956 659.353 387.186 660.373 387.42 661.329 387.876 662.153 388.521 662.523 388.783 662.738 389.213 662.726 389.666Z" fill="#5D5401"/><path d="M630 377C624.477 377 620 381.477 620 387 620 392.523 624.477 397 630 397 635.523 397 640 392.523 640 387 640 381.477 635.523 377 630 377ZM630 380.319C631.581 380.318 632.862 381.599 632.863 383.18 632.864 384.761 631.583 386.042 630.002 386.043 628.421 386.044 627.14 384.763 627.139 383.182 627.139 383.181 627.139 383.181 627.139 383.18 627.139 381.6 628.42 380.319 630 380.319ZM635.723 392.059 624.277 392.059 624.277 389.666C624.279 389.216 624.491 388.793 624.85 388.521 625.696 387.913 626.645 387.461 627.65 387.186 628.409 386.936 629.201 386.808 630 386.805 630.798 386.828 631.589 386.956 632.353 387.186 633.373 387.42 634.329 387.876 635.153 388.521 635.523 388.783 635.738 389.213 635.726 389.666Z" fill="#5D5401"/><path d="M603 377C597.477 377 593 381.477 593 387 593 392.523 597.477 397 603 397 608.523 397 613 392.523 613 387 613 381.477 608.523 377 603 377ZM603 380.319C604.581 380.318 605.862 381.599 605.863 383.18 605.864 384.761 604.583 386.042 603.002 386.043 601.421 386.044 600.14 384.763 600.139 383.182 600.139 383.181 600.139 383.181 600.139 383.18 600.139 381.6 601.42 380.319 603 380.319ZM608.723 392.059 597.277 392.059 597.277 389.666C597.279 389.216 597.491 388.793 597.85 388.521 598.696 387.913 599.645 387.461 600.65 387.186 601.409 386.936 602.201 386.808 603 386.805 603.798 386.828 604.589 386.956 605.353 387.186 606.373 387.42 607.329 387.876 608.153 388.521 608.523 388.783 608.738 389.213 608.726 389.666Z" fill="#5D5401"/><path d="M630 351C637.732 351 644 344.732 644 337 644 329.268 637.732 323 630 323 622.268 323 616 329.268 616 337 616 344.732 622.268 351 630 351ZM630 327.646C632.213 327.646 634.006 329.44 634.006 331.652 634.006 333.865 632.213 335.658 630 335.658 627.787 335.658 625.994 333.865 625.994 331.652 625.995 329.44 627.788 327.647 630 327.646ZM621.988 340.732C621.991 340.103 622.287 339.512 622.788 339.132 623.972 338.281 625.299 337.648 626.705 337.263 627.768 336.912 628.88 336.731 630 336.727 631.117 336.76 632.224 336.94 633.294 337.261 634.721 337.59 636.058 338.228 637.211 339.13 637.728 339.497 638.028 340.097 638.011 340.73L638.011 344.336 621.988 344.336Z" fill="#5D5401"/></g></svg>