<svg width="96" height="96" xmlns="http://www.w3.org/2000/svg" xmlns:xlink="http://www.w3.org/1999/xlink" overflow="hidden"><defs><clipPath id="clip0"><rect x="489" y="175" width="96" height="96"/></clipPath></defs><g clip-path="url(#clip0)" transform="translate(-489 -175)"><path d="M537.005 195.25 537.007 195.25 574.465 230.833 579.005 226.953 537.007 187 537.005 187 495.007 226.953 499.547 230.833 537.005 195.25Z" fill="#FFFFFF"/><path d="M507.005 229.265 507.005 259 531.005 259 531.005 234 543.005 234 543.005 259 567.005 259 567.005 229.264 537.006 200.766 507.005 229.265Z" fill="#FFFFFF"/><path d="M555.01 194.104 555.011 198.02C557.119 198.037 559.133 198.893 560.606 200.399 562.097 201.884 562.95 203.891 562.986 205.995L566.902 205.996C566.872 199.441 561.565 194.134 555.01 194.104Z" fill="#FFFFFF"/><path d="M574.734 205.998C574.808 195.177 566.095 186.345 555.275 186.272 555.186 186.271 555.097 186.271 555.008 186.272L555.009 190.188C563.718 190.166 570.796 197.208 570.818 205.916 570.818 205.943 570.818 205.97 570.818 205.997Z" fill="#FFFFFF"/><path d="M555.006 178.3 555.007 182.216C568.117 182.276 578.73 192.889 578.79 205.999L582.706 206C582.698 190.705 570.301 178.307 555.006 178.3Z" fill="#FFFFFF"/></g></svg>