<svg width="96" height="96" xmlns="http://www.w3.org/2000/svg" xmlns:xlink="http://www.w3.org/1999/xlink" overflow="hidden"><defs><clipPath id="clip0"><rect x="489" y="71" width="96" height="96"/></clipPath></defs><g clip-path="url(#clip0)" transform="translate(-489 -71)"><path d="M537.005 91.25 537.007 91.25 574.465 126.833 579.005 122.953 537.007 83 537.005 83 495.007 122.953 499.547 126.833 537.005 91.25Z" fill="#EE8C1D"/><path d="M507.005 125.265 507.005 155 531.005 155 531.005 130 543.005 130 543.005 155 567.005 155 567.005 125.264 537.006 96.766 507.005 125.265Z" fill="#EE8C1D"/><path d="M555.01 90.104 555.011 94.02C557.119 94.0367 559.133 94.893 560.606 96.3994 562.097 97.8842 562.95 99.8912 562.986 101.995L566.902 101.996C566.872 95.4405 561.565 90.1339 555.01 90.104Z" fill="#EE8C1D"/><path d="M574.734 101.998C574.808 91.177 566.095 82.3453 555.275 82.2717 555.186 82.2711 555.097 82.2711 555.008 82.2717L555.009 86.188C563.718 86.1658 570.796 93.2076 570.818 101.916 570.818 101.943 570.818 101.97 570.818 101.997Z" fill="#EE8C1D"/><path d="M555.006 74.2996 555.007 78.2156C568.117 78.2756 578.73 88.8888 578.79 101.999L582.706 102C582.698 86.7047 570.301 74.3074 555.006 74.2996Z" fill="#EE8C1D"/></g></svg>