<svg width="96" height="96" xmlns="http://www.w3.org/2000/svg" xmlns:xlink="http://www.w3.org/1999/xlink" overflow="hidden"><defs><clipPath id="clip0"><rect x="101" y="67" width="96" height="96"/></clipPath></defs><g clip-path="url(#clip0)" transform="translate(-101 -67)"><path d="M157 117.5C157 119.7 155.2 121.5 153 121.5L149 121.5C146.8 121.5 145 119.7 145 117.5L145 115.5 111 115.5 111 143.5C111 145.7 112.8 147.5 115 147.5L187 147.5C189.2 147.5 191 145.7 191 143.5L191 115.5 157 115.5 157 117.5Z" fill="#EE8C1D"/><path d="M187 91.5 167 91.5 167 85C167 81.1 163.9 78 160 78L142 78C138.1 78 135 81.1 135 85L135 91.5 115 91.5C112.8 91.5 111 93.3 111 95.5L111 111.5 145 111.5 145 109.5 157 109.5 157 111.5 191 111.5 191 95.5C191 93.3 189.2 91.5 187 91.5M141 91.5 141 85C141 84.4 141.4 84 142 84L160 84C160.6 84 161 84.4 161 85L161 91.5 141 91.5Z" fill="#EE8C1D"/></g></svg>